<?xml version="1.0" standalone="no"?><!DOCTYPE svg PUBLIC "-//W3C//DTD SVG 1.1//EN" "http://www.w3.org/Graphics/SVG/1.1/DTD/svg11.dtd"><svg t="1683773975516" class="icon" viewBox="0 0 1024 1024" version="1.1" xmlns="http://www.w3.org/2000/svg" p-id="5861" xmlns:xlink="http://www.w3.org/1999/xlink" width="200" height="200"><path d="M862.435556 200.248889h-34.133334s-79.644444-2.275556-159.288889-34.133333c-81.92-34.133333-136.533333-72.817778-136.533333-72.817778l-20.48-15.928889-20.48 13.653333s-54.613333 38.684444-136.533333 72.817778c-79.644444 34.133333-159.288889 34.133333-159.288889 34.133333H161.564444v359.537778c0 179.768889 227.555556 370.915556 350.435556 370.915556s350.435556-191.146667 350.435556-370.915556V200.248889z m-100.124445 159.288889L509.724444 614.4c-6.826667 6.826667-15.928889 9.102222-25.031111 9.102222-6.826667 0-15.928889-2.275556-20.48-6.826666l-170.666666-136.533334c-13.653333-11.377778-18.204444-34.133333-4.551111-47.786666 11.377778-13.653333 34.133333-18.204444 47.786666-4.551112l147.911111 118.328889 232.106667-232.106666c13.653333-13.653333 34.133333-13.653333 47.786667 0s11.377778 31.857778-2.275556 45.511111z" fill="#1afa29" p-id="5862"></path></svg>