<?xml version="1.0" standalone="no"?><!DOCTYPE svg PUBLIC "-//W3C//DTD SVG 1.1//EN" "http://www.w3.org/Graphics/SVG/1.1/DTD/svg11.dtd"><svg t="1683289427873" class="icon" viewBox="0 0 1024 1024" version="1.1" xmlns="http://www.w3.org/2000/svg" p-id="2386" xmlns:xlink="http://www.w3.org/1999/xlink" width="200" height="200"><path d="M959.936 878.528c0 25.792-18.624 46.656-41.536 46.848v0.512H107.712v-0.512l-0.384 0.064c-23.104 0-41.92-20.992-41.92-46.912 0-9.408 2.56-18.24 6.848-25.6l-0.256-0.192 405.376-735.36 0.192 0.192a40.768 40.768 0 0 1 35.072-21.376c15.232 0 28.48 9.216 35.84 22.848l0.256-0.192 405.312 735.36-0.256 0.192a50.56 50.56 0 0 1 6.144 24.128zM568.576 362.176c0-34.624-25.024-62.656-55.936-62.656s-55.872 28.096-55.872 62.656v234.688c0 34.56 25.024 62.592 55.936 62.592s55.936-28.032 55.936-62.592V362.176h-0.064z m-55.936 344.192c-30.848 0-55.936 28.032-55.936 62.656s25.024 62.592 55.936 62.592 55.936-28.032 55.936-62.592-25.024-62.656-55.936-62.656z" fill="#040000" p-id="2387"></path></svg>
